<?xml version="1.0" encoding="utf-8"?>
<!-- Generator: Adobe Illustrator 16.0.0, SVG Export Plug-In . SVG Version: 6.00 Build 0)  -->
<!DOCTYPE svg PUBLIC "-//W3C//DTD SVG 1.1//EN" "http://www.w3.org/Graphics/SVG/1.1/DTD/svg11.dtd">
<svg version="1.1" id="Layer_1" xmlns="http://www.w3.org/2000/svg" xmlns:xlink="http://www.w3.org/1999/xlink" x="0px" y="0px"
	 width="780px" height="420px" viewBox="0 0 780 420" enable-background="new 0 0 780 420" xml:space="preserve">
<g>
	<g>
		<path d="M182.169,191.122c-15.287-10.239-29.621-21.186-43.549-33.208c-8.91,9.231-17.817,18.465-26.726,27.698
			c-1.169-1.326-1.751-1.993-2.909-3.335c9.3-9.3,18.6-18.6,27.9-27.9c14.739,12.818,29.915,24.409,46.187,35.215
			C182.71,190.204,182.53,190.51,182.169,191.122z"/>
		<path d="M264.343,227.519c1.319,0.415,1.98,0.619,3.302,1.021c-4.281,20.211-8.564,40.421-12.847,60.631
			c-1.542-0.663-2.312-0.999-3.847-1.678c4.151-18.591,8.303-37.181,12.455-55.771c-0.141-0.081-0.212-0.12-0.353-0.201
			c-24.78,11.935-48.872,18.326-76.31,20.263c-1.406-0.96-2.105-1.441-3.502-2.417c7.29-15.613,14.581-31.227,21.873-46.839
			c1.247,0.67,1.871,1.001,3.122,1.658c-6.643,14.724-13.294,29.444-19.943,44.166c0.143,0.13,0.215,0.199,0.358,0.329
			C215.941,246.4,239.829,239.723,264.343,227.519z"/>
		<path d="M353.5,245.771c-17.219-1.04-34.035-3.046-51.014-6.089c-1.082,10.958-1.623,16.438-2.705,27.396
			c9.961,2.469,14.979,3.528,25.062,5.302c10.292,1.811,18.263,4.643,24.094,9.129c5.83,4.485,9.052,9.824,9.388,16.04
			c0.338,6.251-2.396,10.976-8.421,13.796c-6.026,2.82-14.898,3.077-26.247,0.433c-10.625-2.63-21.069-5.506-31.544-8.682
			c2.418-22.188,4.837-44.375,7.259-66.562c17.976,3.293,35.748,5.42,53.994,6.45C353.42,244.098,353.446,244.657,353.5,245.771z
			 M299.534,269.568c-1.062,10.761-2.124,21.522-3.188,32.283c9.041,2.749,18.179,5.179,27.389,7.294
			c10.379,2.383,18.266,2.13,23.365-0.431c5.098-2.561,7.447-6.569,7.217-11.751c-0.221-4.975-2.929-9.493-7.911-13.56
			c-4.981-4.066-12.151-6.68-21.643-8.389C314.612,273.188,309.559,272.096,299.534,269.568z"/>
		<path d="M412.935,282.805c-6.261,0.327-9.393,0.424-15.657,0.492c1.99,13.022,3.982,26.044,5.976,39.065
			c-1.675-0.061-2.512-0.096-4.186-0.173c-3.811-26.532-7.622-53.064-11.432-79.598c1.353-0.084,2.029-0.128,3.381-0.226
			c1.936,12.674,3.874,25.347,5.815,38.02c6.634-0.099,9.949-0.22,16.576-0.61c11.738-14.413,21.663-29.194,30.609-45.488
			c1.562-0.367,2.343-0.556,3.901-0.942c0.086,0.105,0.127,0.159,0.213,0.265c-9.03,17.166-19.132,32.701-31.204,47.883
			c19.822,13.279,40.377,25.229,61.407,36.478c-0.048,0.154-0.072,0.23-0.12,0.385c-1.953,0.28-2.928,0.416-4.882,0.673
			C452.653,307.836,432.427,295.973,412.935,282.805z"/>
		<path d="M532.133,199.737c1.195-0.68,1.792-1.024,2.981-1.718c17.784,29.6,35.572,59.196,53.354,88.798
			c-1.593,0.7-2.39,1.045-3.987,1.729c-16.226-27.529-32.451-55.059-48.68-82.587c-0.164,0.026-0.246,0.039-0.41,0.065
			c-2.107,36.706-9.099,71.299-21.986,105.747c-1.659,0.384-2.488,0.571-4.149,0.938c-11.471-29.083-22.947-58.163-34.413-87.248
			c1.286-0.437,1.93-0.661,3.212-1.11c10.93,27.041,21.868,54.077,32.802,81.116c0.201,0.005,0.3,0.009,0.501,0.014
			C523.831,270.971,530.437,236.382,532.133,199.737z"/>
		<path d="M611.51,136.483c0.975-1.06,1.461-1.594,2.426-2.667c27.901,27.899,55.799,55.802,83.701,83.7
			c-1.394,1.209-2.093,1.811-3.495,3.002c-25.611-26.053-51.229-52.099-76.843-78.149c-0.156,0.072-0.233,0.107-0.39,0.18
			c10.211,40.755,14.729,81.178,13.172,123.176c-1.532,0.885-2.301,1.324-3.84,2.192c-21.071-29.381-42.141-58.763-63.217-88.141
			c1.125-0.82,1.687-1.232,2.804-2.065c19.874,27.223,39.75,54.444,59.619,81.67c0.202-0.05,0.303-0.079,0.505-0.129
			C627.075,217.333,622.136,177.036,611.51,136.483z M582.055,123.21c0.163,0.104,0.243,0.155,0.406,0.259
			c3.978,4.049,6.164,8.525,6.374,13.41c0.209,4.887-1.709,9.263-5.696,12.979c-4.018,3.744-8.383,5.244-12.88,4.595
			s-8.288-3.225-11.481-7.643c-0.076-0.176-0.114-0.263-0.19-0.439c0.833-0.737,1.248-1.109,2.075-1.854
			c2.726,3.437,5.749,5.489,9.126,6.11c3.378,0.623,6.935-0.708,10.52-4.091c3.433-3.239,5.028-6.816,4.771-10.613
			s-1.938-7.343-4.937-10.626C580.911,124.466,581.293,124.048,582.055,123.21z"/>
	</g>
</g>
</svg>
