<?xml version="1.0" encoding="utf-8"?>
<!-- Generator: Adobe Illustrator 16.0.0, SVG Export Plug-In . SVG Version: 6.00 Build 0)  -->
<!DOCTYPE svg PUBLIC "-//W3C//DTD SVG 1.1//EN" "http://www.w3.org/Graphics/SVG/1.1/DTD/svg11.dtd">
<svg version="1.1" id="Layer_1" xmlns="http://www.w3.org/2000/svg" xmlns:xlink="http://www.w3.org/1999/xlink" x="0px" y="0px"
	 width="780px" height="420px" viewBox="0 0 780 420" enable-background="new 0 0 780 420" xml:space="preserve">
<g>
	<g>
		<path d="M196.249,175.735c-13.993-11.29-26.969-23.188-39.443-36.137c-26.524,26.971-53.043,53.946-79.566,80.917
			c-1.402-1.191-2.101-1.79-3.494-2.999c27.897-27.902,55.8-55.799,83.7-83.7c12.994,13.907,26.547,26.62,41.282,38.667
			C197.736,173.784,197.24,174.435,196.249,175.735z"/>
		<path d="M274.517,217.109c1.256,0.528,1.886,0.789,3.147,1.304c-13.344,29.373-26.696,58.741-40.041,88.114
			c-1.646-0.468-2.467-0.706-4.11-1.191c12.712-27.347,25.42-54.696,38.131-82.044c-0.12-0.106-0.18-0.16-0.3-0.268
			c-34.494,21.362-70.329,39.302-107.883,54.645c-1.566-0.786-2.348-1.185-3.909-1.987c19.794-29.503,39.589-59.005,59.381-88.509
			c1.151,0.771,1.729,1.153,2.886,1.911c-18.051,27.398-36.104,54.797-54.151,82.198c0.139,0.136,0.208,0.202,0.347,0.338
			C205.109,256.297,240.489,238.397,274.517,217.109z"/>
		<path d="M360.336,243.452c-16.979-2.123-33.53-5.763-50.055-10.133c-4.096,11.744-8.202,23.485-12.302,35.229
			c10.021,2.3,15.065,3.276,25.19,4.879c10.334,1.636,17.78,4.643,22.571,9.366c4.791,4.724,6.66,10.307,5.301,17.059
			c-1.367,6.79-5.538,12.329-12.689,16.141c-8.56,4.562-18.851,5.574-28.503,4.419c-11.001-1.286-21.856-2.837-32.778-4.684
			c10.361-28.854,20.715-57.712,31.077-86.566c17.481,4.889,34.863,8.586,52.819,11.245
			C360.714,241.625,360.588,242.233,360.336,243.452z M296.861,271.753c-4.834,13.839-9.667,27.678-14.499,41.517
			c9.409,1.662,18.877,2.988,28.377,4.004c10.687,1.137,19.229-0.337,25.378-3.865c6.148-3.528,9.711-8.165,10.91-13.854
			c1.151-5.462-0.413-10.225-4.453-14.511s-10.745-7.004-20.295-8.476C312.065,274.993,306.974,274.031,296.861,271.753z"/>
		<path d="M410.002,281.995c-6.24,0.522-9.365,0.722-15.622,0.987c-1.302,12.659-2.608,25.318-3.909,37.979
			c-1.667,0.149-2.5,0.22-4.168,0.353c2.928-26.07,5.856-52.14,8.781-78.21c1.355,0.038,2.034,0.055,3.391,0.08
			c-1.268,12.322-2.54,24.645-3.804,36.968c6.627-0.255,9.939-0.457,16.55-1.003c14.135-12.646,27.768-25.655,41.007-39.234
			c1.603-0.226,2.402-0.344,4.003-0.589c0.056,0.088,0.084,0.133,0.14,0.221c-13.428,14.342-27.575,27.894-42.119,41.093
			c15.928,10.805,31.984,19.401,49.795,26.695c-0.082,0.138-0.125,0.206-0.207,0.344c-1.879,0.519-2.819,0.772-4.704,1.269
			C441.561,301.521,425.705,292.83,410.002,281.995z"/>
		<path d="M544.407,213.301c1.278-0.574,1.914-0.866,3.188-1.454c6.492,17.091,12.986,34.18,19.48,51.27
			c-1.447,0.881-2.173,1.317-3.628,2.183c-5.903-16.118-11.804-32.237-17.708-48.354c-0.153,0.037-0.231,0.057-0.385,0.094
			c-14.489,27.579-30.451,54.015-47.934,79.801c-1.57,0.583-2.358,0.869-3.934,1.436c-3.148-21.464-6.303-42.927-9.449-64.392
			c1.337-0.32,2.004-0.483,3.339-0.817c3.105,19.725,6.217,39.448,9.32,59.174c0.178-0.027,0.266-0.038,0.443-0.066
			C514.377,266.681,530.105,240.546,544.407,213.301z"/>
		<path d="M631.73,156.847c1.11-0.981,1.665-1.475,2.768-2.47c9.301,9.299,18.601,18.599,27.899,27.9
			c-1.158,1.342-1.739,2.01-2.909,3.336c-8.605-8.916-17.208-17.835-25.812-26.751c-0.139,0.096-0.209,0.142-0.348,0.237
			c-8.451,26.566-18.198,52.597-28.957,78.31c-1.354,1.051-2.033,1.572-3.396,2.607c-7.738-14.653-15.468-29.311-23.207-43.964
			c1.228-0.722,1.842-1.086,3.063-1.822c7.279,13.357,14.562,26.713,21.844,40.068c0.162-0.091,0.239-0.137,0.401-0.228
			C613.699,208.708,623.321,183.031,631.73,156.847z M614.715,156.893c0.086,0.021,0.127,0.031,0.213,0.053
			c1.469,1.452,1.357,3.648-0.396,6.641c-1.756,2.995-4.909,6.25-9.49,9.529c-4.616,3.304-8.714,5.217-12.194,5.763
			c-3.481,0.546-5.732-0.305-6.764-2.38c0.003-0.092,0.003-0.14,0.006-0.232c0.996-0.601,1.493-0.904,2.485-1.515
			c0.984,1.551,2.756,2.206,5.319,1.872c2.563-0.333,5.972-1.942,10.146-4.893c3.996-2.825,6.625-5.472,7.923-7.762
			s1.41-4.046,0.372-5.296C613.289,157.965,613.765,157.61,614.715,156.893z"/>
	</g>
</g>
</svg>
