<?xml version="1.0" encoding="utf-8"?>
<!-- Generator: Adobe Illustrator 16.0.0, SVG Export Plug-In . SVG Version: 6.00 Build 0)  -->
<!DOCTYPE svg PUBLIC "-//W3C//DTD SVG 1.1//EN" "http://www.w3.org/Graphics/SVG/1.1/DTD/svg11.dtd">
<svg version="1.1" id="Layer_1" xmlns="http://www.w3.org/2000/svg" xmlns:xlink="http://www.w3.org/1999/xlink" x="0px" y="0px"
	 width="780px" height="420px" viewBox="0 0 780 420" enable-background="new 0 0 780 420" xml:space="preserve">
<g>
	<g>
		<path d="M209,163.449c-15,0.853-30,1.706-44,2.558c0,12.83,0,25.66,0,38.49c-1-0.13-1.87-0.194-3.041-0.325
			c0.001-13.152,0.158-26.305,0.158-39.457c15.575-1.011,30.883-2.022,46.883-3.035C209,162.387,209,162.741,209,163.449z"/>
		<path d="M283.298,156.812c1.171-0.076,1.702-0.115,2.702-0.191c0,20.474,0,40.948,0,61.422c-1-0.13-1-0.197-2-0.327
			c0-18.879,0-37.758,0-56.638c-1-0.026-0.434-0.04-0.563-0.066c-15.817,18.11-32.194,35.499-50.596,51.027
			c-1.171-0.13-1.841-0.196-2.841-0.326c0-17.132,0-34.265,0-51.397c1-0.076,1-0.114,3-0.19c0,16.057,0,32.114,0,48.171
			c0,0.042-0.16,0.062-0.03,0.103C251.368,192.663,267.474,175.091,283.298,156.812z"/>
		<path d="M361,154.543c-15,0.854-29,1.707-44,2.559c0,10.909,0,16.364,0,27.272c8,0.108,12.111,0.163,20.109,0.271
			c8.164,0.11,14.517,2.024,18.941,5.923c4.424,3.898,6.667,9.024,6.667,15.194c0,6.205-2.198,11.062-6.623,14.392
			c-4.426,3.33-10.865,4.451-19.029,3.542c-9.168-1.021-14.065-1.529-23.065-2.55c0-22.11,0-44.221,0-66.332
			c16-1.011,31-2.023,47-3.035C361,152.885,361,153.437,361,154.543z M317,186.853c0,10.713,0,21.426,0,32.14
			c8,0.838,12.111,1.258,20.109,2.096c7.514,0.787,13.208-0.27,16.965-3.296c3.756-3.027,5.663-7.178,5.663-12.318
			c0-4.936-1.875-9.238-5.649-12.77c-3.775-3.53-9.508-5.299-16.986-5.449C329.104,187.095,325,187.013,317,186.853z"/>
		<path d="M405.602,191.056c-4.834-0.122-7.252-0.182-12.086-0.304c0.002,13.07,0.001,26.14,0.001,39.209
			c-1.171-0.13-1.756-0.196-2.926-0.326c0.001-26.592,0.24-53.185,0.242-79.777c1.171-0.076,1.167-0.114,3.167-0.19
			c0,12.72,0,25.441,0,38.161c5,0.097,7.496,0.146,12.656,0.243c11.543-13.522,22.541-27.314,33.367-41.417
			c1.388-0.09,2.02-0.135,3.407-0.225c0.043,0.12,0.035,0.181,0.078,0.3c-11.185,14.755-22.688,29.185-34.642,43.326
			c12.93,14.677,25.155,29.903,37.113,45.375c-0.065,0.14-0.103,0.21-0.168,0.35c-1.365-0.152-2.051-0.229-3.416-0.381
			C430.509,220.274,418.298,205.509,405.602,191.056z"/>
		<path d="M521.295,141.354c1.172-0.076,1.705-0.114,2.705-0.19c0,34.457,0,68.914,0,103.371c-1-0.131-1-0.195-2-0.326
			c0-31.883,0-63.765,0-95.647c-1-0.05-0.436-0.076-0.564-0.126c-15.932,30.604-32.592,60.66-50.594,90.096
			c-1.171-0.13-1.842-0.193-2.842-0.323c0-31.117,0-62.234,0-93.351c1-0.076,1-0.115,3-0.191c0,29.032,0,58.065,0,87.097
			c0,0.064-0.161,0.095-0.031,0.159C488.975,202.33,505.363,172.111,521.295,141.354z"/>
		<path d="M606.842,135.827c1.172-0.076,1.158-0.113,3.158-0.189c0,39.457,0,78.913,0,118.37c-2-0.131-2-0.195-3-0.326
			c0-36.532,0-73.065,0-109.597c-1-0.058-0.39-0.088-0.52-0.146c-15.984,35.149-32.691,69.863-50.618,104.065
			c-1.171-0.13-1.862-0.196-2.862-0.326c0-36.115,0-72.231,0-108.346c1-0.076,1-0.114,3-0.19c0,33.671,0,67.341,0,101.012
			c0,0.072,0.112,0.11,0.242,0.183C574.162,205.981,590.85,171.119,606.842,135.827z M596.312,105.973
			c0.043,0.187,0.064,0.279,0.107,0.466c0.145,5.671-1.123,10.443-3.796,14.248c-2.675,3.806-6.323,5.864-10.948,6.24
			c-4.66,0.379-8.337-1.069-11.028-4.274c-2.691-3.205-3.95-7.495-3.769-12.947c0.043-0.188,0.064-0.282,0.107-0.47
			c0.997-0.111,1.497-0.167,2.494-0.277c0,4.384,0.976,7.822,2.927,10.351c1.951,2.53,5.042,3.626,9.269,3.254
			c4.047-0.356,7.083-2.033,9.106-5.07s3.036-6.797,3.036-11.244C594.816,106.139,595.314,106.083,596.312,105.973z"/>
	</g>
</g>
</svg>
