<?xml version="1.0" encoding="utf-8"?>
<!-- Generator: Adobe Illustrator 16.0.0, SVG Export Plug-In . SVG Version: 6.00 Build 0)  -->
<!DOCTYPE svg PUBLIC "-//W3C//DTD SVG 1.1//EN" "http://www.w3.org/Graphics/SVG/1.1/DTD/svg11.dtd">
<svg version="1.1" id="Layer_1" xmlns="http://www.w3.org/2000/svg" xmlns:xlink="http://www.w3.org/1999/xlink" x="0px" y="0px"
	 width="780px" height="420px" viewBox="0 0 780 420" enable-background="new 0 0 780 420" xml:space="preserve">
<g>
	<g>
		<path d="M151.968,124.676c-17.552,11.835-34.021,24.569-49.928,38.538c26.522,26.972,53.042,53.946,79.566,80.917
			c-0.862,1.025-1.291,1.542-2.144,2.579c-27.899-27.902-55.801-55.8-83.701-83.702c17.067-15.154,34.766-28.879,53.728-41.583
			C150.481,122.725,150.977,123.375,151.968,124.676z"/>
		<path d="M244.3,76.381c1.541-0.497,2.312-0.74,3.856-1.22c13.349,29.37,26.693,58.741,40.041,88.111
			c-1.16,0.527-1.739,0.794-2.894,1.334c-12.711-27.348-25.421-54.696-38.131-82.044c-0.191,0.007-0.287,0.01-0.478,0.018
			c-8.836,36.57-11.733,72.604-9.524,110.147c-1.05,0.751-1.572,1.129-2.615,1.892c-19.794-29.503-39.587-59.008-59.383-88.51
			c1.453-0.794,2.182-1.188,3.641-1.967c18.047,27.401,36.102,54.797,54.149,82.198c0.152-0.035,0.228-0.053,0.38-0.088
			C231.628,148.728,234.997,112.789,244.3,76.381z"/>
		<path d="M349.076,60.621c-19.74,0.971-39.408,3.426-58.782,7.334c4.102,11.743,8.201,23.487,12.304,35.229
			c9.637-2.391,14.491-3.417,24.246-5.136c9.957-1.754,18.262-0.55,24.546,3.052c6.283,3.603,9.969,8.813,11.328,15.565
			c1.367,6.79-0.056,12.572-3.94,17.633c-3.886,5.062-10.025,8.55-18.613,10.733c-9.646,2.452-14.422,3.869-23.844,7.083
			c-10.357-28.855-20.715-57.71-31.077-86.563c21.001-4.051,41.854-6.684,63.203-7.977
			C348.699,58.793,348.824,59.403,349.076,60.621z M303.716,106.389c4.834,13.838,9.667,27.676,14.5,41.515
			c8.339-2.697,12.558-3.899,21.061-6.01c7.988-1.983,13.537-5.115,16.787-9.659c3.25-4.543,4.399-9.556,3.2-15.245
			c-1.151-5.462-4.323-9.847-9.725-13.112c-5.401-3.265-12.767-4.32-21.803-2.688C318.071,102.936,313.26,103.976,303.716,106.389z"
			/>
		<path d="M411.393,98.252c-5.886-0.302-8.832-0.392-14.722-0.451c1.301,12.66,2.61,25.319,3.907,37.98
			c-1.274,0.071-1.911,0.109-3.185,0.193c-2.926-26.069-5.854-52.138-8.781-78.207c1.586,0.088,2.379,0.135,3.964,0.239
			c1.269,12.321,2.542,24.642,3.801,36.964c6.335,0.091,9.505,0.207,15.834,0.577c13.465-11.021,27.241-20.247,42.568-28.484
			c1.836,0.418,2.752,0.633,4.583,1.074c0.052,0.109,0.081,0.163,0.132,0.272c-15.952,8.339-30.225,17.735-44.195,29.085
			c14.729,12.802,29.066,25.972,42.681,39.964c-0.079,0.104-0.118,0.157-0.197,0.261c-1.494-0.185-2.242-0.273-3.737-0.44
			C440.271,123.727,426.099,110.788,411.393,98.252z"/>
		<path d="M558.439,106.888c1.408,0.789,2.11,1.186,3.512,1.99c-6.49,17.09-12.986,34.178-19.478,51.268
			c-1.229-0.511-1.845-0.763-3.077-1.261c5.906-16.117,11.808-32.236,17.71-48.355c-0.145-0.114-0.217-0.17-0.361-0.284
			c-26.707,6.247-49.43,16.413-72.009,31.971c-1.272-0.268-1.91-0.399-3.185-0.654c3.153-21.464,6.299-42.928,9.452-64.392
			c1.513,0.501,2.269,0.756,3.776,1.273c-3.116,19.724-6.214,39.45-9.322,59.174c0.138,0.067,0.209,0.1,0.347,0.167
			C508.669,122.562,531.595,112.741,558.439,106.888z"/>
		<path d="M652.188,180.461c1.154,1.236,1.727,1.857,2.87,3.108c-9.298,9.302-18.6,18.601-27.9,27.9
			c-1.088-0.903-1.634-1.352-2.728-2.242c8.602-8.919,17.208-17.833,25.812-26.751c-0.112-0.15-0.17-0.227-0.282-0.376
			c-25.417-7.495-49.011-9.696-75.324-6.465c-1.187-0.653-1.781-0.977-2.973-1.617c7.734-14.655,15.479-29.305,23.206-43.963
			c1.327,0.953,1.991,1.432,3.311,2.4c-7.284,13.354-14.563,26.711-21.846,40.067c0.12,0.099,0.182,0.148,0.302,0.247
			C603.106,169.96,626.782,172.563,652.188,180.461z M649,161.472c0,0.099,0,0.147,0,0.247c-1,1.712-3.556,1.603-7.159-0.144
			c-3.606-1.748-7.812-4.885-12.743-9.372c-4.969-4.521-8.579-8.516-10.769-12.235c-2.19-3.72-2.617-6.498-1.2-8.291
			c0.09-0.025,0.134-0.036,0.224-0.061c1.121,0.948,1.682,1.425,2.796,2.385c-0.984,1.552-0.688,3.73,0.844,6.518
			c1.532,2.788,4.595,6.155,9.115,10.302c4.328,3.97,7.832,6.618,10.608,7.883s4.667,1.325,5.706,0.075
			C647.461,159.85,648,160.389,649,161.472z"/>
	</g>
</g>
</svg>
