<?xml version="1.0" encoding="utf-8"?>
<!-- Generator: Adobe Illustrator 16.0.0, SVG Export Plug-In . SVG Version: 6.00 Build 0)  -->
<!DOCTYPE svg PUBLIC "-//W3C//DTD SVG 1.1//EN" "http://www.w3.org/Graphics/SVG/1.1/DTD/svg11.dtd">
<svg version="1.1" id="Layer_1" xmlns="http://www.w3.org/2000/svg" xmlns:xlink="http://www.w3.org/1999/xlink" x="0px" y="0px"
	 width="780px" height="420px" viewBox="0 0 780 420" enable-background="new 0 0 780 420" xml:space="preserve">
<g>
	<g>
		<path d="M166.048,140.063c-16.265,12.883-31.374,26.575-45.823,41.466c8.908,9.233,17.818,18.466,26.726,27.7
			c-1.094,0.89-1.639,1.337-2.727,2.24c-9.301-9.299-18.602-18.599-27.9-27.9c15.32-16.236,31.394-31.085,48.82-45.036
			C165.505,139.146,165.687,139.452,166.048,140.063z"/>
		<path d="M254.473,86.791c1.479-0.609,2.22-0.91,3.704-1.504c4.281,20.21,8.564,40.419,12.847,60.628
			c-1.264,0.333-1.896,0.502-3.158,0.848c-4.152-18.59-8.304-37.18-12.455-55.771c-0.17,0.033-0.253,0.048-0.423,0.082
			c-15.006,24.573-28.909,49.671-41.1,75.768c-1.21,0.577-1.816,0.868-3.022,1.458c-7.29-15.613-14.581-31.225-21.872-46.837
			c1.357-0.896,2.037-1.338,3.401-2.218c6.651,14.72,13.295,29.443,19.944,44.164c0.147-0.041,0.221-0.06,0.368-0.1
			C225.099,136.944,239.225,111.601,254.473,86.791z"/>
		<path d="M355.913,62.938c-19.523,2.337-38.87,6.141-57.822,11.381c1.082,10.958,1.622,16.438,2.704,27.396
			c9.696-2.223,14.579-3.165,24.375-4.713c10-1.58,17.779-0.55,23.024,2.814c5.245,3.364,7.576,8.332,7.24,14.547
			c-0.338,6.251-3.159,11.349-8.209,15.29c-5.052,3.942-11.927,5.999-20.87,6.745c-10.044,0.837-15.067,1.454-25.076,3.085
			c-2.419-22.187-4.837-44.374-7.259-66.561c20.5-5.644,40.964-9.856,62.026-12.771C355.993,61.267,355.967,61.824,355.913,62.938z
			 M301.042,104.206c1.064,10.761,2.125,21.522,3.189,32.283c8.801-1.394,13.216-1.937,22.047-2.722
			c8.296-0.737,14.501-2.648,18.802-6.225c4.3-3.577,6.662-7.96,6.892-13.142c0.221-4.975-1.806-9.118-6.267-12.163
			s-11.36-3.999-20.456-2.603C315.521,101.128,310.674,102.042,301.042,104.206z"/>
		<path d="M408.461,99.061c-5.866-0.498-8.805-0.686-14.687-0.941c-1.996,13.021-3.987,26.042-5.978,39.063
			c-1.267-0.139-1.9-0.205-3.168-0.331c3.811-26.532,7.621-53.064,11.432-79.596c1.589-0.035,2.382-0.049,3.972-0.068
			c-1.937,12.674-3.875,25.347-5.815,38.021c6.329,0.247,9.494,0.44,15.807,0.966c17.217-12.324,34.814-23.836,52.966-34.737
			c1.875,0.277,2.812,0.42,4.685,0.719c0.021,0.127,0.035,0.189,0.057,0.316c-18.904,11.225-37.211,23.109-55.111,35.875
			c12.432,15.163,22.875,31.935,31.069,49.746c-0.113,0.121-0.169,0.181-0.282,0.302c-1.42-0.423-2.132-0.631-3.557-1.037
			C430.843,129.967,420.714,114.341,408.461,99.061z"/>
		<path d="M570.71,93.323c1.491,0.683,2.235,1.027,3.722,1.726c-17.781,29.601-35.564,59.201-53.354,88.797
			c-1.083-0.692-1.625-1.035-2.714-1.714c16.227-27.529,32.452-55.059,48.68-82.587c-0.134-0.125-0.201-0.186-0.335-0.31
			c-34.307,16.764-66.837,35.778-97.956,57.914c-1.184-0.467-1.777-0.698-2.965-1.152c11.474-29.081,22.948-58.162,34.411-87.247
			c1.562,0.385,2.346,0.582,3.906,0.983c-10.935,27.037-21.872,54.073-32.803,81.112c0.115,0.1,0.172,0.149,0.287,0.249
			C503.109,128.985,536.023,110.019,570.71,93.323z"/>
		<path d="M672.404,160.097c1.29,1.157,1.934,1.738,3.215,2.912c-27.899,27.901-55.798,55.804-83.701,83.702
			c-0.853-1.037-1.283-1.554-2.146-2.579c25.615-26.048,51.23-52.096,76.843-78.147c-0.094-0.173-0.142-0.26-0.236-0.433
			c-40.453,9.3-79.403,21.789-117.453,38.399c-1.009-0.819-1.514-1.226-2.529-2.033c21.069-29.381,42.146-58.757,63.215-88.139
			c1.43,0.855,2.145,1.288,3.567,2.16c-19.874,27.221-39.747,54.443-59.619,81.666c0.08,0.14,0.12,0.21,0.2,0.351
			C592.23,181.503,631.574,169.195,672.404,160.097z M681.682,127.79c-0.077,0.182-0.117,0.271-0.194,0.452
			c-3.69,4.31-8.375,6.478-13.942,6.623c-5.57,0.145-11.013-1.869-16.539-5.919c-5.568-4.082-8.91-8.491-10.084-13.405
			c-1.174-4.915-0.064-9.414,3.514-13.55c0.168-0.109,0.253-0.161,0.421-0.27c1.283,0.812,1.925,1.22,3.203,2.045
			c-2.726,3.437-3.68,7.013-2.961,10.755c0.719,3.743,3.629,7.389,8.737,11.103c4.892,3.557,9.432,5.272,13.764,5.031
			s8.027-1.969,11.026-5.252C679.852,126.35,680.462,126.828,681.682,127.79z"/>
	</g>
</g>
</svg>
