<?xml version="1.0" encoding="utf-8"?>
<!-- Generator: Adobe Illustrator 16.0.0, SVG Export Plug-In . SVG Version: 6.00 Build 0)  -->
<!DOCTYPE svg PUBLIC "-//W3C//DTD SVG 1.1//EN" "http://www.w3.org/Graphics/SVG/1.1/DTD/svg11.dtd">
<svg version="1.1" id="Layer_1" xmlns="http://www.w3.org/2000/svg" xmlns:xlink="http://www.w3.org/1999/xlink" x="0px" y="0px"
	 width="780px" height="420px" viewBox="0 0 780 420" enable-background="new 0 0 780 420" xml:space="preserve">
<g>
	<g>
		<path d="M189.21,183.428c-14.64-10.764-28.293-22.188-41.497-34.672c-17.716,18.102-35.431,36.207-53.147,54.309
			c-1.286-1.259-1.925-1.892-3.201-3.167c18.6-18.601,37.2-37.2,55.8-55.8c13.867,13.364,28.231,25.516,43.734,36.941
			C190.224,181.993,189.886,182.472,189.21,183.428z"/>
		<path d="M269.43,222.314c1.288,0.472,1.933,0.706,3.225,1.164c-8.816,24.789-17.628,49.58-26.444,74.369
			c-1.594-0.565-2.39-0.852-3.979-1.434c8.433-22.969,16.86-45.94,25.293-68.909c-0.13-0.094-0.196-0.139-0.326-0.232
			c-29.357,16.524-59.595,28.627-92.097,37.455c-1.486-0.873-2.228-1.313-3.707-2.203c13.54-22.56,27.088-45.115,40.627-67.675
			c1.198,0.721,1.8,1.078,3.004,1.785c-12.348,21.062-24.697,42.121-37.046,63.182c0.141,0.133,0.212,0.2,0.353,0.333
			C210.52,251.166,240.437,238.946,269.43,222.314z"/>
		<path d="M356.918,244.613c-17.098-1.725-33.755-4.399-50.534-8.113c-2.502,10.438-5.004,20.876-7.505,31.313
			c9.991,2.384,15.023,3.402,25.126,5.09c10.313,1.723,18.022,4.644,23.333,9.249c5.31,4.604,7.855,10.063,7.344,16.548
			c-0.514,6.521-3.947,11.588-10.555,14.968c-6.609,3.381-15.85,4.353-27.375,2.427c-10.814-1.957-21.463-4.172-32.162-6.684
			c6.388-25.521,12.777-51.043,19.167-76.564c17.73,4.09,35.307,7.001,53.408,8.85C357.067,242.863,357.017,243.446,356.918,244.613
			z M298.198,270.66c-2.951,12.3-5.899,24.601-8.843,36.902c9.226,2.201,18.528,4.084,27.883,5.648
			c10.533,1.76,18.748,0.896,24.372-2.148c5.623-3.045,8.579-7.369,9.064-12.805c0.465-5.218-1.672-9.856-6.183-14.033
			c-4.511-4.176-11.448-6.843-20.969-8.434C313.338,274.09,308.267,273.063,298.198,270.66z"/>
		<path d="M411.469,282.399c-6.25,0.425-9.382,0.575-15.643,0.742c0.348,12.84,0.687,25.68,1.035,38.52
			c-1.671,0.045-2.505,0.062-4.176,0.09c-0.442-26.3-0.885-52.601-1.325-78.9c1.354-0.022,2.031-0.038,3.385-0.074
			c0.337,12.497,0.67,24.995,1.005,37.492c6.63-0.177,9.945-0.338,16.564-0.807c12.924-13.45,24.728-27.355,35.809-42.361
			c1.583-0.297,2.372-0.45,3.952-0.766c0.07,0.097,0.107,0.146,0.178,0.242c-11.294,15.772-23.365,30.363-36.663,44.486
			c17.871,11.961,36.199,22.314,55.601,31.589c-0.064,0.146-0.097,0.218-0.162,0.364c-1.916,0.399-2.874,0.594-4.794,0.971
			C447.125,304.682,429.068,294.317,411.469,282.399z"/>
		<path d="M538.269,206.519c1.237-0.627,1.855-0.943,3.087-1.584c12.138,23.345,24.277,46.689,36.416,70.033
			c-1.52,0.791-2.28,1.183-3.807,1.957c-11.066-21.823-22.129-43.648-33.193-65.473c-0.159,0.032-0.238,0.049-0.397,0.08
			c-8.021,32.56-19.662,62.946-34.962,92.775c-1.614,0.483-2.422,0.721-4.04,1.188c-7.312-25.273-14.623-50.547-21.933-75.82
			c1.312-0.378,1.968-0.572,3.276-0.964c7.019,23.382,14.041,46.763,21.059,70.146c0.189-0.012,0.288-0.015,0.478-0.026
			C519.226,269.122,530.566,238.893,538.269,206.519z"/>
		<path d="M621.62,146.664c1.042-1.021,1.562-1.534,2.597-2.568c18.6,18.601,37.2,37.2,55.8,55.8
			c-1.275,1.276-1.915,1.91-3.201,3.169c-17.106-17.486-34.219-34.966-51.327-52.45c-0.147,0.084-0.224,0.127-0.371,0.21
			c1.333,34.141-1.427,67.2-7.892,100.741c-1.443,0.968-2.167,1.449-3.618,2.4c-14.401-22.019-28.807-44.034-43.21-66.051
			c1.176-0.771,1.762-1.16,2.932-1.945c13.578,20.288,27.155,40.576,40.73,60.866c0.183-0.07,0.273-0.104,0.456-0.175
			C620.705,213.342,623.209,180.526,621.62,146.664z M598.385,140.051c0.124,0.063,0.187,0.095,0.311,0.157
			c2.724,2.75,3.759,6.086,2.986,10.025c-0.773,3.941-3.308,7.755-7.592,11.253c-4.316,3.524-8.55,5.23-12.538,5.179
			c-3.989-0.052-7.013-1.766-9.124-5.012c-0.037-0.134-0.053-0.2-0.09-0.334c0.914-0.669,1.369-1.007,2.279-1.686
			c1.854,2.494,4.254,3.849,7.224,3.993c2.971,0.145,6.453-1.326,10.332-4.493c3.714-3.032,5.825-6.144,6.346-9.188
			s-0.261-5.695-2.279-7.961C597.101,141.215,597.528,140.829,598.385,140.051z"/>
	</g>
</g>
</svg>
