<?xml version="1.0" encoding="utf-8"?>
<!-- Generator: Adobe Illustrator 16.0.0, SVG Export Plug-In . SVG Version: 6.00 Build 0)  -->
<!DOCTYPE svg PUBLIC "-//W3C//DTD SVG 1.1//EN" "http://www.w3.org/Graphics/SVG/1.1/DTD/svg11.dtd">
<svg version="1.1" id="Layer_1" xmlns="http://www.w3.org/2000/svg" xmlns:xlink="http://www.w3.org/1999/xlink" x="0px" y="0px"
	 width="780px" height="420px" viewBox="0 0 780 420" enable-background="new 0 0 780 420" xml:space="preserve">
<g>
	<g>
		<path d="M209,142.757c-15-0.853-30-1.704-44-2.559c0,37.828,0,75.655,0,113.483c-1,0.13-2,0.196-3,0.326
			c0-39.457,0-78.913,0-118.37c15,1.009,31,2.02,47,3.036C209,140.308,209,141.123,209,142.757z"/>
		<path d="M283.524,143.54c1.171,0.076,1.756,0.115,2.927,0.191c-0.001,32.135-0.003,64.271,0,96.406
			c-1.171,0.13-1.756,0.196-2.927,0.326c0-30.044,0.003-60.088,0-90.133c-0.13-0.06-0.195-0.09-0.325-0.15
			c-17.982,31.431-34.739,63.45-50.682,95.961c-1.171,0.13-1.756,0.196-2.927,0.326c-0.003-35.476,0.242-70.952,0.242-106.428
			c1.171,0.076,1.168,0.113,3.168,0.189c0,32.758,0,65.517,0,98.275c0,0.045-0.047,0.067,0.083,0.112
			C249.027,206.395,265.539,174.67,283.524,143.54z"/>
		<path d="M361,151.661c-15-0.851-29.183-1.704-43.777-2.557c0,12.373,0.004,24.745,0.003,37.118
			c7.998-0.108,11.998-0.163,19.996-0.271c8.164-0.11,14.46,2.023,18.885,6.217c4.424,4.194,6.639,9.621,6.639,16.458
			c0,6.875-2.212,12.586-6.637,17.314c-4.426,4.729-10.872,7.634-19.036,8.543c-9.168,1.021-14.073,1.53-23.073,2.551
			c0-30.499,0-60.997,0-91.496c16,1.011,31,2.024,47,3.035C361,149.809,361,150.425,361,151.661z M317,189.596
			c0,14.58,0,29.161,0,43.741c8-0.838,12.111-1.257,20.109-2.095c7.514-0.787,13.208-3.367,16.965-7.603
			c3.756-4.234,5.663-9.171,5.663-14.943c0-5.542-1.875-10.147-5.649-13.951c-3.774-3.803-9.508-5.702-16.986-5.552
			C329.104,189.354,325,189.436,317,189.596z"/>
		<path d="M405.602,190.053c-4.834,0.122-7.252,0.181-12.086,0.303c0.002,12.621,0.001,25.241,0.001,37.862
			c-1.171,0.13-1.756,0.196-2.926,0.326c0.001-26.017,0.24-52.033,0.242-78.049c1.171,0.076,1.167,0.113,3.167,0.189
			c0,12.284,0,24.567,0,36.851c5-0.097,7.496-0.146,12.656-0.243c10.703-11.645,21.729-22.883,33.367-33.596
			c1.388,0.09,2.02,0.135,3.407,0.225c0.043,0.097,0.035,0.145,0.078,0.242c-12.057,11.084-23.587,22.748-34.642,34.83
			c11.977,11.503,24.173,22.685,37.113,33.106c-0.065,0.119-0.103,0.18-0.168,0.299c-1.365,0.152-2.051,0.229-3.416,0.381
			C429.601,212.489,417.35,201.523,405.602,190.053z"/>
		<path d="M521.295,158.998c1.172,0.076,1.705,0.115,2.705,0.191c0,18.152,0,36.304,0,54.456c-1,0.131-1,0.195-2,0.326
			c0-17.041,0-34.082,0-51.122c-1-0.037-0.436-0.055-0.564-0.092c-18.195,17.915-34.729,36.891-50.594,56.892
			c-1.171,0.13-1.842,0.193-2.842,0.323c0-21.492,0-42.984,0-64.477c1,0.076,1,0.115,3,0.191c0,19.783,0,39.565,0,59.348
			c0,0.022-0.161,0.035-0.031,0.058C486.839,195.345,503.102,176.635,521.295,158.998z"/>
		<path d="M606.842,164.526c1.172,0.076,1.158,0.113,3.158,0.189c0,13.152,0,26.305,0,39.457c-2,0.13-2,0.195-3,0.326
			c0-12.391,0-24.782,0-37.173c-1-0.029-0.39-0.043-0.52-0.072c-18.21,12.987-34.651,27.27-50.618,42.923
			c-1.171,0.13-1.862,0.195-2.862,0.326c0-16.493,0-32.987,0-49.48c1,0.076,1,0.115,3,0.191c0,15.144,0,30.288,0,45.432
			c0,0.014,0.112,0.022,0.242,0.036C572.213,191.264,588.635,177.236,606.842,164.526z M596.312,152.864
			c0.043,0.074,0.064,0.11,0.107,0.184c0.145,2.062-1.123,3.593-3.796,4.666c-2.675,1.073-6.323,1.455-10.948,1.079
			c-4.66-0.379-8.337-1.372-11.028-3.044c-2.692-1.672-3.95-3.686-3.769-5.968c0.043-0.073,0.064-0.107,0.107-0.18
			c0.997,0.111,1.497,0.166,2.494,0.277c0,1.832,0.976,3.416,2.927,4.716c1.951,1.301,5.042,2.12,9.269,2.492
			c4.047,0.356,7.083,0.082,9.106-0.784s3.036-2.091,3.036-3.715C594.816,152.697,595.314,152.753,596.312,152.864z"/>
	</g>
</g>
</svg>
