<?xml version="1.0" encoding="utf-8"?>
<!-- Generator: Adobe Illustrator 16.0.0, SVG Export Plug-In . SVG Version: 6.00 Build 0)  -->
<!DOCTYPE svg PUBLIC "-//W3C//DTD SVG 1.1//EN" "http://www.w3.org/Graphics/SVG/1.1/DTD/svg11.dtd">
<svg version="1.1" id="Layer_1" xmlns="http://www.w3.org/2000/svg" xmlns:xlink="http://www.w3.org/1999/xlink" x="0px" y="0px"
	 width="780px" height="420px" viewBox="0 0 780 420" enable-background="new 0 0 780 420" xml:space="preserve">
<g>
	<g>
		<path d="M159.008,132.37c-16.908,12.358-32.698,25.571-47.876,40.001c17.715,18.104,35.432,36.205,53.146,54.309
			c-0.978,0.957-1.465,1.439-2.435,2.409c-18.6-18.6-37.2-37.2-55.8-55.8c16.195-15.694,33.081-29.982,51.274-43.31
			C157.994,130.936,158.332,131.414,159.008,132.37z"/>
		<path d="M249.387,81.587c1.51-0.553,2.266-0.827,3.78-1.364c8.815,24.79,17.63,49.58,26.443,74.371
			c-1.212,0.43-1.817,0.647-3.026,1.09c-8.431-22.969-16.861-45.938-25.292-68.907c-0.18,0.02-0.272,0.03-0.453,0.05
			c-12.147,30.246-20.621,60.694-25.311,92.958c-1.13,0.664-1.693,0.999-2.818,1.675c-13.542-22.558-27.086-45.115-40.627-67.674
			c1.405-0.845,2.108-1.264,3.521-2.093c12.35,21.06,24.698,42.121,37.045,63.182c0.15-0.038,0.224-0.056,0.374-0.094
			C228.087,142.403,236.898,111.877,249.387,81.587z"/>
		<path d="M352.495,61.779c-19.633,1.66-39.138,4.785-58.303,9.359c2.502,10.437,5.003,20.874,7.504,31.312
			c9.667-2.307,14.535-3.293,24.311-4.926c9.979-1.667,18.021-0.549,23.786,2.935c5.764,3.483,8.771,8.571,9.282,15.055
			c0.514,6.521-1.607,11.96-6.075,16.462c-4.469,4.502-10.975,7.275-19.74,8.739c-9.845,1.645-14.746,2.663-24.461,5.085
			c-6.387-25.521-12.776-51.042-19.167-76.562c20.75-4.849,41.41-8.269,62.615-10.375C352.347,60.03,352.396,60.613,352.495,61.779z
			 M302.379,105.297c2.948,12.3,5.897,24.601,8.843,36.901c8.57-2.045,12.885-2.919,21.553-4.367
			c8.142-1.36,14.021-3.883,17.797-7.943c3.774-4.06,5.529-8.757,5.044-14.192c-0.465-5.218-3.063-9.484-7.995-12.639
			c-4.931-3.155-12.064-4.16-21.13-2.646C316.796,102.031,311.967,103.009,302.379,105.297z"/>
		<path d="M409.927,98.657c-5.876-0.399-8.82-0.539-14.706-0.696c-0.342,12.841-0.683,25.682-1.033,38.522
			c-1.271-0.034-1.906-0.048-3.177-0.069c0.44-26.301,0.883-52.602,1.327-78.902c1.588,0.026,2.379,0.043,3.966,0.086
			c-0.328,12.498-0.672,24.995-1.004,37.492c6.332,0.169,9.495,0.323,15.816,0.77c15.333-11.657,31.062-22.023,47.769-31.61
			c1.855,0.348,2.782,0.527,4.635,0.897c0.036,0.118,0.056,0.177,0.092,0.294c-17.335,9.7-34.018,20.184-49.652,32.479
			c13.459,14.2,25.585,28.875,36.874,44.855c-0.097,0.112-0.144,0.169-0.239,0.281c-1.457-0.304-2.187-0.452-3.646-0.738
			C435.568,126.75,423.393,112.461,409.927,98.657z"/>
		<path d="M564.574,100.105c1.45,0.735,2.174,1.106,3.618,1.857c-12.138,23.345-24.274,46.69-36.416,70.033
			c-1.156-0.602-1.735-0.898-2.896-1.487c11.063-21.825,22.13-43.647,33.195-65.471c-0.139-0.119-0.208-0.179-0.347-0.297
			c-30.443,11.595-58.357,26.159-84.984,44.942c-1.229-0.368-1.844-0.548-3.074-0.903c7.312-25.272,14.627-50.544,21.931-75.819
			c1.538,0.443,2.305,0.669,3.839,1.128c-7.019,23.381-14.043,46.76-21.058,70.143c0.126,0.083,0.188,0.125,0.313,0.208
			C505.658,125.844,533.867,111.475,564.574,100.105z"/>
		<path d="M662.298,170.28c1.222,1.196,1.828,1.798,3.04,3.01c-18.6,18.601-37.199,37.201-55.8,55.8
			c-0.97-0.971-1.457-1.453-2.436-2.41c17.108-17.484,34.217-34.967,51.327-52.448c-0.104-0.162-0.153-0.243-0.257-0.405
			c-33.149,1.144-64.693,6.164-96.392,15.966c-1.098-0.736-1.647-1.102-2.751-1.825c14.403-22.017,28.807-44.035,43.212-66.051
			c1.379,0.904,2.064,1.358,3.436,2.278c-13.577,20.289-27.155,40.577-40.729,60.868c0.1,0.119,0.148,0.18,0.248,0.299
			C597.177,175.848,628.953,171.117,662.298,170.28z M665.352,144.63c-0.039,0.141-0.056,0.211-0.095,0.352
			c-2.437,3.011-5.971,4.038-10.557,3.238c-4.588-0.801-9.415-3.376-14.645-7.645c-5.269-4.301-8.746-8.505-10.428-12.821
			c-1.682-4.317-1.342-7.953,1.155-10.918c0.129-0.067,0.191-0.102,0.32-0.168c1.202,0.88,1.804,1.323,3,2.215
			c-1.854,2.494-2.185,5.373-1.059,8.638c1.125,3.266,4.112,6.77,8.927,10.7c4.61,3.763,8.634,5.946,12.188,6.458
			s6.352-0.322,8.37-2.589C663.662,143.1,664.226,143.607,665.352,144.63z"/>
	</g>
</g>
</svg>
