<?xml version="1.0" encoding="utf-8"?>
<!-- Generator: Adobe Illustrator 16.0.0, SVG Export Plug-In . SVG Version: 6.00 Build 0)  -->
<!DOCTYPE svg PUBLIC "-//W3C//DTD SVG 1.1//EN" "http://www.w3.org/Graphics/SVG/1.1/DTD/svg11.dtd">
<svg version="1.1" id="Layer_1" xmlns="http://www.w3.org/2000/svg" xmlns:xlink="http://www.w3.org/1999/xlink" x="0px" y="0px"
	 width="338.667px" height="338.667px" viewBox="-27.77 -27.77 338.667 338.667"
	 enable-background="new -27.77 -27.77 338.667 338.667" xml:space="preserve">
<g enable-background="new    ">
	<g>
		<path fill="#000" d="M44.766,119.229c-4.808,0.022-8.509,0.106-10.839,0.255c-12.701,20.257-23.373,42.574-31.363,64.52
			c-1.5,0.183-3,0.364-4.5,0.546c12.495-24.771,24.99-47.956,37.485-69.552c2.904-0.149,7.421-0.2,13.2-0.162
			C47.359,116.263,46.032,117.73,44.766,119.229z"/>
		<path fill="#000" d="M78.936,115.486c1.167,0.037,2.349,0.076,3.544,0.115c-18.25,18.382-20.717,50.354-1.804,58.921
			c-1.488,0.181-2.975,0.361-4.463,0.542c-16.207-7.842-16.504-32.258-4.452-50.778c-0.053-0.016-0.106-0.032-0.159-0.047
			c-21.333,18.951-29.439,41.807-26.664,54.622c-1.5,0.182-3,0.364-4.5,0.546c-13.148-15.093-6.908-44.503,13.646-64.515
			c0.888,0.012,1.797,0.026,2.728,0.042c-17.68,16.933-24.441,41.167-16.979,56.755c0.072,0.009,0.145,0.017,0.217,0.025
			C41.067,156.123,54.168,131.56,78.936,115.486z"/>
		<path fill="#000" d="M121.599,120.94c-9.265-0.342-18.323-0.637-26.909-0.882c-4.594,6.84-7.443,15.129-8.334,23.115
			c4.765-0.048,9.673-0.102,14.686-0.161c6.344-0.081,11.234,1.634,14.999,4.854c3.787,3.188,6.087,7.324,7.397,11.494
			c1.342,4.177,1.245,6.588-0.423,8.219c-1.671,1.6-4.875,2.353-10.576,3.087c-6.05,0.734-12.1,1.469-18.15,2.203
			c-17.965-6.897-16.438-39.058-0.519-56.864c9.344,0.357,19.274,0.789,29.44,1.289C122.63,118.441,122.093,119.661,121.599,120.94z
			 M86.058,147.897c-0.128,9.729,2.859,18.443,9.375,22.735c4.665-0.457,9.361-0.922,14.081-1.394
			c4.67-0.491,7.348-1.287,8.544-2.849c1.199-1.581,1.229-3.695,0.187-6.802c-0.992-2.998-2.783-5.91-5.636-8.346
			c-2.837-2.449-6.675-3.735-11.694-3.627C95.849,147.718,90.884,147.813,86.058,147.897z"/>
		<path fill="#000" d="M148.111,148.375c-2.307,0.08-4.614,0.158-6.921,0.235c0.879,9.102,2.844,16.532,6.049,17.832
			c-1.5,0.182-3,0.363-4.5,0.546c-7.941-2.956-8.981-33.273-4.925-48.937c1.413,0.077,2.826,0.155,4.24,0.235
			c-1.284,7.049-1.724,17.115-1.181,26.239c2.28-0.05,4.561-0.102,6.839-0.154c7.706-9.166,15.428-18.514,19.92-24.51
			c1.57,0.105,3.134,0.212,4.69,0.321c0.043,0.05,0.086,0.099,0.129,0.149c-4.069,6.227-11.945,16.103-19.951,25.555
			c10.656,9.553,22.131,16.386,29.482,16.321c-0.031,0.01-0.063,0.02-0.095,0.029c-1.8,0.218-3.6,0.437-5.399,0.655
			C169.033,163,158.188,157.021,148.111,148.375z"/>
		<path fill="#000" d="M211.711,123.442c1.143,0.114,2.271,0.229,3.384,0.345c15.244,11.479,21.389,30.049,15.206,32.573
			c-1.487,0.181-2.976,0.361-4.463,0.542c5.487-2.027,2.062-16.498-8.282-27.964c-0.069-0.013-0.139-0.026-0.208-0.039
			c2.307,10.577-8.439,28.661-22.784,31.799c-1.5,0.183-3,0.364-4.5,0.547c3.435-1.778,0.072-26.935-8.309-40.38
			c1.341,0.101,2.672,0.202,3.995,0.305c8.02,11.293,11.831,30.811,10.161,37.392c0.077-0.003,0.155-0.007,0.233-0.01
			C209.178,150.418,216.808,132.197,211.711,123.442z"/>
		<path fill="#000" d="M245.101,127.942c0.647,0.132,1.27,0.265,1.865,0.397c12.495,8.738,24.99,15.887,37.484,21.448
			c-1.487,0.181-2.975,0.36-4.462,0.541c-8.248-4.478-18.085-11.11-29.155-18.544c-0.037-0.01-0.074-0.021-0.111-0.031
			c7.801,6.237,11.819,17.684-2.009,22.372c-1.5,0.182-3,0.364-4.5,0.546c4.351-3.102-3.079-18.992-19.207-29.776
			c1.013,0.122,2.007,0.245,2.98,0.368c13.834,9.013,21.609,21.252,21.492,26.706c0.067-0.005,0.135-0.011,0.202-0.016
			C259.699,144.562,252.647,134.025,245.101,127.942z M230.52,120.066c0.082,0.039,0.164,0.077,0.246,0.115
			c2.496,1.375,3.839,2.422,4.269,3.105c0.416,0.686-0.238,0.877-2.161,0.561c-1.927-0.313-4.334-1.027-7.302-2.084
			c-2.971-1.051-5.923-2.209-8.903-3.318c-0.066-0.028-0.132-0.056-0.198-0.084c0.783,0.095,1.566,0.19,2.35,0.285
			c2.089,0.797,4.073,1.555,5.976,2.212c1.902,0.66,3.565,1.122,5.031,1.353c1.417,0.226,1.893,0.098,1.501-0.377
			c-0.397-0.474-1.416-1.169-3.158-2.052C228.954,119.875,229.737,119.971,230.52,120.066z"/>
	</g>
</g>
</svg>
