<?xml version="1.0" encoding="utf-8"?>
<!-- Generator: Adobe Illustrator 16.0.0, SVG Export Plug-In . SVG Version: 6.00 Build 0)  -->
<!DOCTYPE svg PUBLIC "-//W3C//DTD SVG 1.1//EN" "http://www.w3.org/Graphics/SVG/1.1/DTD/svg11.dtd">
<svg version="1.1" id="Layer_1" xmlns="http://www.w3.org/2000/svg" xmlns:xlink="http://www.w3.org/1999/xlink" x="0px" y="0px"
	 width="338.667px" height="338.667px" viewBox="-27.77 -27.77 338.667 338.667"
	 enable-background="new -27.77 -27.77 338.667 338.667" xml:space="preserve">
<g enable-background="new    ">
	<g>
		<path fill="#000" d="M31.632,132.88c-5.68,0.503-10.047,0.935-12.683,1.269c12.768,14.254,3.686,20.455,10.996,36.523
			c-1.109-0.014-2.192-0.036-3.243-0.067c-4.966-7.596-1.592-14.799-1.464-20.244c0.51-5.823-2.227-9.889-10.577-19.946
			c3.27-0.543,8.613-1.258,15.604-2.064C30.665,129.989,31.134,131.493,31.632,132.88z"/>
		<path fill="#000" d="M67.178,124.795c1.425-0.115,2.866-0.229,4.321-0.343c-1.143,14.331,5.448,20.055,9.444,25.994
			c4.727,5.545,6.86,11.306,13.668,16.641c-1.136,0.106-2.285,0.214-3.445,0.319c-5.772-4.431-8.253-9.93-12.039-14.539
			c-3.46-4.927-8.226-8.963-11.057-17.827c-0.071-0.011-0.143-0.021-0.215-0.031c-1.675,9.14-1.29,12.971-1.758,17.935
			c-0.245,4.661-1.343,10.456-0.828,16.515c-1.294,0.084-2.591,0.166-3.891,0.243c-4.958-7.348-8.971-13.65-13.318-19.115
			c-4.2-5.792-8.733-10.746-11.314-22.956c1.082-0.116,2.192-0.233,3.33-0.351c4.402,20.295,13.757,23.393,20.912,36.144
			c0.068,0.008,0.136,0.016,0.204,0.023c-0.237-5.952,1.129-10.446,1.037-15.389C62.605,142.924,61.522,137.342,67.178,124.795z"/>
		<path fill="#000" d="M117.834,126.865c-9.642,0.549-19.364,1.138-28.825,1.749c-0.422,8.87,2.556,14.62,4.996,18.838
			c3.726-0.084,7.392-0.183,11.007-0.299c4.589-0.157,8.368,0.756,11.257,2.536c2.912,1.772,4.744,4.051,6.136,6.783
			c1.403,2.753,1.792,4.753,1.007,6.052c-0.793,1.297-2.719,1.869-6.413,2.296c-3.931,0.419-8.031,0.849-12.341,1.284
			c-6.562-4.623-8.448-10.169-12.616-15.803c-3.451-6.021-9.184-12.131-6.887-26.851c11.221-0.772,22.898-1.45,34.391-2.001
			C118.869,123.292,118.301,125.112,117.834,126.865z M95.503,149.917c3.184,4.685,5.424,9.98,9.97,14.212
			c3.243-0.23,6.39-0.462,9.455-0.693c3.029-0.244,4.634-0.85,5.172-2.061c0.534-1.215,0.234-2.825-0.829-4.843
			c-1.024-1.942-2.494-3.601-4.693-4.945c-2.187-1.349-5.005-2.006-8.452-1.909C102.651,149.771,99.115,149.85,95.503,149.917z"/>
		<path fill="#000" d="M136.657,149.658c-1.481,0.079-2.947,0.155-4.402,0.228c0.526,5.377,3.686,11.147,6.092,12.653
			c-0.895,0.093-1.788,0.187-2.682,0.281c-6.482-6.511-11.667-15.519,0.089-42.074c1.539-0.06,3.069-0.118,4.591-0.173
			c-5.115,11.817-8.118,21.092-8.182,26.707c1.505-0.085,3.02-0.175,4.549-0.27c5.714-5.997,18.395-16.545,30.273-27.204
			c1.585-0.033,3.154-0.064,4.709-0.093c-0.012,0.074-0.023,0.147-0.035,0.221c-12.271,10.979-26.052,21.866-31.938,27.994
			c5.623,5.915,15.034,11.984,20.409,12.438c-0.021,0.008-0.041,0.015-0.061,0.022c-1.235,0.114-2.444,0.229-3.634,0.343
			C151.2,160.378,142.521,154.897,136.657,149.658z"/>
		<path fill="#000" d="M210.12,119.573c1.111,0.017,2.211,0.036,3.296,0.057c-3.495,15.521-5.295,34.034-11.221,36.965
			c-1.658,0.15-3.275,0.295-4.853,0.437c5.421-2.267,6.102-16.381,11.236-30.323c-0.061-0.008-0.121-0.018-0.182-0.026
			c-6.126,7.231-15.434,15.093-22.153,21.155c-7.103,6.111-11.618,10.422-17.017,11.708c-1.145,0.104-2.265,0.206-3.364,0.307
			c1.398-1.19-0.77-6.269,1.744-13.271c1.907-7.083,8.497-16.091,13.429-27.009c1.316-0.016,2.62-0.03,3.912-0.042
			c-3.692,8.84-9.412,16.997-11.946,23.502c-2.91,6.543-2.635,11.434-2.998,14.634c0.061,0,0.123-0.001,0.186-0.001
			c4.705-3.566,10.391-8.932,18.335-15.982C196.089,134.78,205.913,126.193,210.12,119.573z"/>
		<path fill="#000" d="M243.606,121.489c0.668,0.097,1.309,0.199,1.921,0.305c4.564,10.726,20.026,18.62,38.841,26.882
			c-2.937,0.303-5.811,0.596-8.625,0.882c-11.239-6.514-23.211-14.58-29.448-23.372c-0.039-0.009-0.078-0.019-0.117-0.028
			c3.156,7.616-0.523,23.029-21.186,28.349c-2.054,0.191-4.057,0.378-6.011,0.558c6.137-3.836,4.67-21.361,4.188-35.157
			c1.007,0.038,1.998,0.08,2.973,0.125c1.531,11.481,3.406,25.203,0.863,31.921c0.093-0.006,0.187-0.013,0.28-0.019
			C244.867,142.936,244.672,129.19,243.606,121.489z M238.065,111.312c0.028,0.054,0.058,0.107,0.087,0.159
			c0.515,1.955,0.406,3.426-0.204,4.447c-0.621,1.023-1.746,1.417-3.591,1.214c-1.847-0.202-3.592-0.953-5.287-2.234
			c-1.711-1.272-3.082-2.793-4.502-4.325c-0.024-0.041-0.049-0.081-0.074-0.121c0.744,0.054,1.489,0.106,2.237,0.158
			c0.966,1.098,1.926,2.095,3.016,2.909c1.084,0.817,2.283,1.315,3.659,1.468c1.329,0.149,2.127-0.126,2.477-0.843
			c0.345-0.716,0.333-1.708-0.13-2.959C236.521,111.226,237.291,111.27,238.065,111.312z"/>
	</g>
</g>
</svg>
