<?xml version="1.0" encoding="utf-8"?>
<!-- Generator: Adobe Illustrator 16.0.0, SVG Export Plug-In . SVG Version: 6.00 Build 0)  -->
<!DOCTYPE svg PUBLIC "-//W3C//DTD SVG 1.1//EN" "http://www.w3.org/Graphics/SVG/1.1/DTD/svg11.dtd">
<svg version="1.1" id="Layer_1" xmlns="http://www.w3.org/2000/svg" xmlns:xlink="http://www.w3.org/1999/xlink" x="0px" y="0px"
	 width="221.206px" height="88.149px" viewBox="0 0 221.206 88.149" enable-background="new 0 0 221.206 88.149"
	 xml:space="preserve">
<g>
	<g id="Rectangle_4_copy_5_12_">
		<g>
			
				<rect x="39.525" y="14.283" transform="matrix(0.7056 -0.7086 0.7086 0.7056 -8.1392 37.6062)" fill="#3CB878" width="3.321" height="28.63"/>
		</g>
	</g>
	<circle fill="#3CB878" cx="30.738" cy="18.269" r="5.448"/>
	<path d="M64.739,66.594l-0.957,0.646l-4.265-6.317l-3.443,2.324l4.265,6.317l-0.957,0.647l-4.773-7.07l5.356-3.617L64.739,66.594z"
		/>
	<path d="M71.125,47.275l-0.651,3.357l-1.133-0.219l1.624-8.375l3.204,0.621c0.894,0.174,1.544,0.537,1.951,1.096
		c0.407,0.555,0.538,1.209,0.393,1.961c-0.147,0.76-0.514,1.318-1.099,1.68c-0.585,0.359-1.324,0.453-2.218,0.279L71.125,47.275z
		 M71.297,46.389l2.071,0.4c0.567,0.111,1.021,0.041,1.36-0.209c0.339-0.252,0.553-0.609,0.644-1.072
		c0.09-0.465,0.023-0.879-0.198-1.244s-0.614-0.604-1.178-0.713l-2.071-0.4L71.297,46.389z"/>
	<path d="M85.457,33.234c-0.198,1.023-0.681,1.811-1.446,2.363c-0.766,0.551-1.654,0.729-2.667,0.533
		c-0.978-0.189-1.707-0.682-2.188-1.475c-0.48-0.795-0.622-1.703-0.424-2.727l0.289-1.49c0.198-1.02,0.669-1.811,1.412-2.369
		c0.743-0.561,1.604-0.746,2.581-0.557c1.013,0.197,1.771,0.695,2.274,1.494c0.503,0.801,0.655,1.711,0.457,2.736L85.457,33.234z
		 M84.615,31.512c0.148-0.766,0.063-1.436-0.255-2.006c-0.319-0.572-0.828-0.926-1.526-1.061c-0.659-0.127-1.232,0.016-1.721,0.43
		s-0.808,1.006-0.956,1.773l-0.291,1.5c-0.15,0.775-0.076,1.445,0.222,2.014c0.298,0.566,0.776,0.914,1.436,1.043
		c0.702,0.135,1.307-0.002,1.813-0.41s0.836-1.002,0.987-1.781L84.615,31.512z"/>
	<path d="M91.946,52.047l1.133,0.219l-1.624,8.375l-1.133-0.219l1.238-6.385l-0.032-0.02l-5.272,5.615l-1.133-0.219l1.624-8.375
		l1.133,0.219l-1.236,6.379l0.031,0.018L91.946,52.047z M92.08,49.602l0.005,0.037c-0.07,0.447-0.288,0.781-0.653,1
		c-0.365,0.221-0.811,0.279-1.336,0.178c-0.528-0.104-0.922-0.324-1.178-0.664s-0.331-0.73-0.227-1.172l0.019-0.033l0.868,0.17
		c-0.049,0.252-0.023,0.469,0.076,0.652c0.1,0.182,0.292,0.301,0.575,0.355c0.276,0.055,0.497,0.014,0.662-0.119
		s0.271-0.324,0.32-0.572L92.08,49.602z"/>
	<path d="M132.667,28.704l-2.762-0.535l-1.451,7.482l-1.133-0.219l1.451-7.484l-2.727-0.527l0.173-0.893l6.621,1.285L132.667,28.704
		z"/>
	<path d="M119.062,51.001l1.133,0.219l-1.623,8.375l-1.133-0.219l1.238-6.385l-0.033-0.02l-5.273,5.615l-1.133-0.219l1.625-8.375
		l1.133,0.219l-1.236,6.379l0.031,0.018L119.062,51.001z"/>
	<path d="M145.063,17.584l-2.761-0.535l-1.451,7.482l-1.133-0.219l1.451-7.484l-2.727-0.527l0.173-0.893l6.62,1.283L145.063,17.584z
		"/>
	<path d="M138.079,52.24l-2.905,1.961l1.709,2.53l3.398-2.296l0.506,0.749l-4.355,2.94l-4.773-7.07l4.303-2.905l0.508,0.752
		l-3.346,2.261l1.543,2.287l2.904-1.962L138.079,52.24z"/>
	<path d="M149.11,40.919l0.005,0.037c-0.137,0.789-0.541,1.393-1.211,1.812c-0.67,0.418-1.472,0.539-2.403,0.357
		c-0.947-0.184-1.653-0.668-2.12-1.455c-0.466-0.787-0.6-1.697-0.399-2.729l0.289-1.49c0.2-1.031,0.664-1.826,1.391-2.383
		c0.728-0.557,1.563-0.744,2.511-0.561s1.652,0.582,2.114,1.195s0.604,1.334,0.429,2.162l-0.019,0.033l-1.088-0.211
		c0.114-0.586,0.031-1.084-0.247-1.492c-0.279-0.408-0.733-0.674-1.362-0.795c-0.633-0.123-1.187,0.033-1.661,0.471
		s-0.785,1.033-0.932,1.789l-0.291,1.502c-0.148,0.762-0.084,1.436,0.193,2.02c0.276,0.582,0.731,0.936,1.364,1.059
		c0.629,0.121,1.148,0.045,1.56-0.227c0.411-0.273,0.675-0.707,0.791-1.307L149.11,40.919z"/>
	<path d="M100.664,33.431l-2.331,1.574l4.266,6.318l-0.958,0.646l-4.265-6.317l-2.302,1.554l-0.509-0.753l5.59-3.773L100.664,33.431
		z"/>
	
		<image overflow="visible" width="196" height="18" id="Layer_12_xA0_Image_2_" xlink:href="206E0D30589AC7E4.png"  transform="matrix(0.3871 -0.0601 0.0955 0.6144 77.4243 76.6875)">
	</image>
	
		<image overflow="visible" width="196" height="18" id="Layer_12_xA0_Image_8_" xlink:href="206E0D30589AC7E5.png"  transform="matrix(-0.205 0.3338 -0.5299 -0.3254 75.0029 10.5537)">
	</image>
	
		<image overflow="visible" width="196" height="18" id="Layer_12_xA0_Image_9_" xlink:href="206E0D30589AC7E3.png"  transform="matrix(-0.3902 -2.871603e-04 4.541918e-04 -0.6218 112.6748 18.4424)">
	</image>
	
		<image overflow="visible" width="196" height="18" id="Layer_12_xA0_Image_10_" xlink:href="206E0D30589AC7EC.png"  transform="matrix(-0.2866 -0.2648 0.4219 -0.4567 202.7285 61.1514)">
	</image>
	<g id="Rectangle_4_copy_5_11_">
		<g>
			<polygon fill="#3CB878" points="112.66,16.498 29.872,16.648 29.881,19.969 112.67,19.818 			"/>
		</g>
	</g>
	<circle fill="#3CB878" cx="142.038" cy="6.477" r="5.449"/>
	<g id="Rectangle_4_copy_5_71_">
		<g>
			<polygon fill="#3CB878" points="142.49,4.697 140.258,7.155 201.504,62.859 203.735,60.401 			"/>
		</g>
	</g>
	<g id="Rectangle_4_copy_5_77_">
		<g>
			
				<rect x="31.872" y="78.749" transform="matrix(1 -0.0041 0.0041 1 -0.3287 0.1897)" fill="#3CB878" width="28.631" height="3.32"/>
		</g>
	</g>
	<g id="Rectangle_4_copy_5_79_">
		<g>
			
				<rect x="115.848" y="4.816" transform="matrix(1 -0.0041 0.0041 1 -0.0254 0.5328)" fill="#3CB878" width="28.631" height="3.32"/>
		</g>
	</g>
	<circle fill="#3CB878" cx="158.758" cy="64.053" r="5.449"/>
	<g id="Rectangle_4_copy_5_83_">
		<g>
			
				<rect x="77.317" y="68.653" transform="matrix(0.9878 -0.1554 0.1554 0.9878 -9.4857 19.3048)" fill="#3CB878" width="82.789" height="3.32"/>
		</g>
	</g>
	<g id="Rectangle_4_copy_5_80_">
		<g>
			
				<rect x="151.88" y="53.134" transform="matrix(0.623 -0.7822 0.7822 0.623 19.7947 150.6588)" fill="#3CB878" width="28.629" height="3.319"/>
		</g>
	</g>
	<circle fill="#3CB878" cx="32.437" cy="80.41" r="5.449"/>
	<g id="Rectangle_4_copy_5_75_">
		<g>
			<polygon fill="#3CB878" points="73.735,9.636 30.604,80.302 33.439,82.028 76.571,11.363 			"/>
		</g>
	</g>
</g>
</svg>
