<?xml version="1.0" encoding="utf-8"?>
<!-- Generator: Adobe Illustrator 16.0.0, SVG Export Plug-In . SVG Version: 6.00 Build 0)  -->
<!DOCTYPE svg PUBLIC "-//W3C//DTD SVG 1.1//EN" "http://www.w3.org/Graphics/SVG/1.1/DTD/svg11.dtd">
<svg version="1.1" id="Layer_1" xmlns="http://www.w3.org/2000/svg" xmlns:xlink="http://www.w3.org/1999/xlink" x="0px" y="0px"
	 width="221.206px" height="88.149px" viewBox="0 0 221.206 88.149" enable-background="new 0 0 221.206 88.149"
	 xml:space="preserve">
<g>
	<g id="Rectangle_4_copy_5_92_">
		<g>
			
				<rect x="39.525" y="14.685" transform="matrix(0.7056 -0.7086 0.7086 0.7056 -8.4243 37.7246)" fill="#3CB878" width="3.321" height="28.63"/>
		</g>
	</g>
	<circle fill="#3CB878" cx="30.738" cy="18.671" r="5.448"/>
	
		<image overflow="visible" width="196" height="18" id="Layer_12_xA0_Image_14_" xlink:href="D30BCD4EB26B051D.png"  transform="matrix(0.3871 -0.0601 0.0955 0.6144 77.4243 77.0898)">
	</image>
	
		<image overflow="visible" width="196" height="18" id="Layer_12_xA0_Image_13_" xlink:href="D30BCD4EB26B051F.png"  transform="matrix(-0.205 0.3338 -0.5299 -0.3254 75.0029 10.9561)">
	</image>
	
		<image overflow="visible" width="196" height="18" id="Layer_12_xA0_Image_12_" xlink:href="D30BCD4EB26B051A.png"  transform="matrix(-0.3902 -2.871603e-04 4.541918e-04 -0.6218 112.6748 18.8447)">
	</image>
	
		<image overflow="visible" width="196" height="18" id="Layer_12_xA0_Image_11_" xlink:href="D30BCD4EB26B051B.png"  transform="matrix(-0.2866 -0.2648 0.4219 -0.4567 202.7285 61.5537)">
	</image>
	<g id="Rectangle_4_copy_5_91_">
		<g>
			<polygon fill="#3CB878" points="112.66,16.9 29.872,17.051 29.881,20.371 112.67,20.221 			"/>
		</g>
	</g>
	<circle fill="#3CB878" cx="142.038" cy="6.879" r="5.449"/>
	<g id="Rectangle_4_copy_5_90_">
		<g>
			<polygon fill="#3CB878" points="142.49,5.1 140.258,7.558 201.504,63.262 203.735,60.804 			"/>
		</g>
	</g>
	<g id="Rectangle_4_copy_5_89_">
		<g>
			
				<rect x="31.872" y="79.151" transform="matrix(1 -0.0041 0.0041 1 -0.3304 0.1897)" fill="#3CB878" width="28.631" height="3.32"/>
		</g>
	</g>
	<g id="Rectangle_4_copy_5_88_">
		<g>
			
				<rect x="115.848" y="5.219" transform="matrix(1 -0.0041 0.0041 1 -0.0271 0.5328)" fill="#3CB878" width="28.631" height="3.32"/>
		</g>
	</g>
	<circle fill="#3CB878" cx="158.758" cy="64.455" r="5.449"/>
	<g id="Rectangle_4_copy_5_87_">
		<g>
			
				<rect x="77.317" y="69.056" transform="matrix(0.9878 -0.1554 0.1554 0.9878 -9.5482 19.3097)" fill="#3CB878" width="82.789" height="3.32"/>
		</g>
	</g>
	<g id="Rectangle_4_copy_5_86_">
		<g>
			
				<rect x="151.88" y="53.537" transform="matrix(0.623 -0.7822 0.7822 0.623 19.48 150.8105)" fill="#3CB878" width="28.629" height="3.319"/>
		</g>
	</g>
	<circle fill="#3CB878" cx="32.437" cy="80.812" r="5.449"/>
	<g id="Rectangle_4_copy_5_85_">
		<g>
			<polygon fill="#3CB878" points="73.735,10.038 30.604,80.704 33.439,82.431 76.571,11.766 			"/>
		</g>
	</g>
	<path d="M75.219,50.032l-1.154,0.021l-0.142-7.621l-4.153,0.077l0.142,7.621l-1.154,0.022l-0.159-8.53l6.462-0.12L75.219,50.032z"
		/>
	<path d="M78.289,46.553l0.063,3.42l-1.154,0.022l-0.159-8.529l3.263-0.062c0.91-0.017,1.622,0.203,2.137,0.665
		c0.514,0.457,0.778,1.069,0.793,1.836c0.014,0.773-0.227,1.396-0.724,1.871c-0.497,0.474-1.2,0.72-2.11,0.736L78.289,46.553z
		 M78.272,45.65l2.109-0.041c0.578-0.01,1.006-0.173,1.287-0.488c0.279-0.316,0.414-0.711,0.406-1.183
		c-0.009-0.474-0.16-0.864-0.453-1.176c-0.293-0.311-0.727-0.462-1.301-0.451l-2.109,0.04L78.272,45.65z"/>
	<path d="M91.276,46.229c0.02,1.042-0.288,1.912-0.921,2.613c-0.634,0.698-1.466,1.057-2.497,1.077
		c-0.996,0.019-1.812-0.311-2.447-0.985c-0.636-0.678-0.964-1.536-0.983-2.578l-0.028-1.518c-0.019-1.039,0.277-1.911,0.887-2.612
		c0.61-0.703,1.413-1.063,2.408-1.083c1.032-0.018,1.877,0.312,2.536,0.987c0.659,0.678,0.998,1.536,1.018,2.581L91.276,46.229z
		 M90.093,44.72c-0.015-0.779-0.238-1.417-0.668-1.908c-0.432-0.493-1.003-0.732-1.714-0.719c-0.671,0.014-1.202,0.272-1.593,0.779
		s-0.58,1.152-0.565,1.934l0.028,1.528c0.015,0.789,0.227,1.429,0.637,1.923c0.41,0.491,0.95,0.731,1.622,0.721
		c0.715-0.015,1.277-0.274,1.688-0.779c0.411-0.506,0.608-1.154,0.594-1.948L90.093,44.72z"/>
	<path d="M98.159,41.072l1.153-0.022l0.159,8.529l-1.153,0.022L98.197,43.1l-0.036-0.013l-3.985,6.592l-1.153,0.022l-0.159-8.529
		l1.154-0.022l0.122,6.496l0.034,0.011L98.159,41.072z M97.78,38.653l0.012,0.035c0.025,0.452-0.119,0.824-0.43,1.114
		c-0.311,0.292-0.734,0.442-1.27,0.452c-0.538,0.009-0.969-0.125-1.29-0.403c-0.321-0.279-0.477-0.646-0.466-1.099l0.011-0.037
		l0.885-0.015c0.004,0.257,0.075,0.464,0.21,0.622c0.135,0.157,0.348,0.233,0.637,0.228c0.282-0.004,0.489-0.09,0.623-0.255
		c0.134-0.164,0.198-0.373,0.194-0.626L97.78,38.653z"/>
	<path d="M107.262,41.811l-2.812,0.053l0.142,7.621l-1.153,0.021l-0.142-7.622l-2.777,0.053l-0.017-0.908l6.744-0.125
		L107.262,41.811z"/>
	<path d="M113.771,40.781l1.154-0.022l0.158,8.53l-1.153,0.022l-0.121-6.503l-0.036-0.013l-3.985,6.592l-1.153,0.022l-0.159-8.529
		l1.153-0.022l0.122,6.496l0.034,0.011L113.771,40.781z"/>
	<path d="M125.855,41.465l-2.811,0.053l0.141,7.62l-1.152,0.022l-0.143-7.622l-2.777,0.053l-0.017-0.908l6.742-0.127L125.855,41.465
		z"/>
	<path d="M131.795,45.023l-3.504,0.064l0.058,3.053l4.101-0.077l0.017,0.902l-5.255,0.099l-0.158-8.529l5.19-0.097l0.017,0.906
		l-4.037,0.077l0.052,2.759l3.504-0.066L131.795,45.023z"/>
	<path d="M139.867,46.098l0.012,0.035c0.031,0.8-0.238,1.475-0.806,2.024c-0.567,0.549-1.327,0.835-2.276,0.852
		c-0.964,0.018-1.756-0.309-2.377-0.98c-0.619-0.673-0.939-1.535-0.959-2.586l-0.028-1.518c-0.02-1.05,0.269-1.925,0.862-2.62
		c0.596-0.696,1.375-1.054,2.339-1.072c0.965-0.018,1.737,0.225,2.317,0.728c0.58,0.504,0.869,1.179,0.87,2.025l-0.011,0.036
		l-1.108,0.021c-0.011-0.598-0.195-1.067-0.553-1.408c-0.358-0.341-0.858-0.506-1.498-0.493c-0.645,0.012-1.153,0.28-1.526,0.807
		c-0.373,0.527-0.553,1.175-0.538,1.944l0.028,1.529c0.014,0.776,0.218,1.422,0.611,1.935c0.391,0.512,0.91,0.763,1.555,0.751
		c0.641-0.013,1.133-0.195,1.479-0.547c0.344-0.354,0.512-0.832,0.5-1.443L139.867,46.098z"/>
	<path d="M147.082,41.069l-2.812,0.053l0.143,7.622l-1.155,0.021l-0.142-7.62l-2.777,0.051l-0.017-0.908l6.743-0.125L147.082,41.069
		z"/>
</g>
</svg>
