<?xml version="1.0" encoding="utf-8"?>
<!-- Generator: Adobe Illustrator 16.0.0, SVG Export Plug-In . SVG Version: 6.00 Build 0)  -->
<!DOCTYPE svg PUBLIC "-//W3C//DTD SVG 1.1//EN" "http://www.w3.org/Graphics/SVG/1.1/DTD/svg11.dtd">
<svg version="1.1" id="Layer_1" xmlns="http://www.w3.org/2000/svg" xmlns:xlink="http://www.w3.org/1999/xlink" x="0px" y="0px"
	 width="283.46px" height="283.46px" viewBox="0 0 283.46 283.46" enable-background="new 0 0 283.46 283.46" xml:space="preserve">
<g enable-background="new    ">
	<path fill="#2c3e50" d="M49.304,124.856H25.679v42.312h-3.75v-45.5h27.375V124.856z"/>
	<path fill="#2c3e50" d="M87.054,121.668h3.719v45.5h-3.719v-38.906l-0.188-0.031l-25.875,38.938h-3.75v-45.5h3.75v38.844
		l0.188,0.031L87.054,121.668z"/>
	<path fill="#2c3e50" d="M129.492,124.856h-23.625v16h11.375c4.792,0,8.495,1.203,11.109,3.609c2.614,2.406,3.922,5.568,3.922,9.484
		c0,3.938-1.318,7.125-3.953,9.562c-2.636,2.438-6.328,3.656-11.078,3.656h-15.125v-45.5h27.375V124.856z M105.867,144.043v19.969
		h11.375c3.75,0,6.562-0.969,8.438-2.906s2.812-4.344,2.812-7.219c0-2.771-0.938-5.104-2.812-7
		c-1.875-1.896-4.688-2.844-8.438-2.844H105.867z"/>
	<path fill="#2c3e50" d="M151.148,145.575h-4.906v21.594h-3.75v-45.5h3.75v20.75h4.875l17.875-20.75h4.25l0.062,0.156L154.429,143.7
		l20.75,23.312l-0.062,0.156h-4.5L151.148,145.575z"/>
	<path fill="#2c3e50" d="M211.742,121.668h3.719v45.5h-3.719v-38.906l-0.188-0.031l-25.875,38.938h-3.75v-45.5h3.75v38.844
		l0.188,0.031L211.742,121.668z"/>
	<path fill="#2c3e50" d="M256.867,121.668h3.719v45.5h-3.719v-38.906l-0.188-0.031l-25.875,38.938h-3.75v-45.5h3.75v38.844
		l0.188,0.031L256.867,121.668z M252.835,109.231l0.062,0.188c0.083,2.334-0.678,4.229-2.281,5.688
		c-1.604,1.459-3.792,2.188-6.562,2.188c-2.771,0-4.964-0.734-6.578-2.203c-1.615-1.469-2.37-3.359-2.266-5.672l0.062-0.188h2.938
		c0,1.604,0.469,2.896,1.406,3.875c0.938,0.979,2.416,1.469,4.438,1.469c1.958,0,3.422-0.5,4.391-1.5s1.453-2.281,1.453-3.844
		H252.835z"/>
</g>
</svg>
